<?xml version="1.0" standalone="no"?>
<!DOCTYPE svg PUBLIC "-//W3C//DTD SVG 20010904//EN"
 "http://www.w3.org/TR/2001/REC-SVG-20010904/DTD/svg10.dtd">
<svg version="1.0" xmlns="http://www.w3.org/2000/svg"
 width="1200.000000pt" height="1200.000000pt" viewBox="0 0 1200.000000 1200.000000"
 preserveAspectRatio="xMidYMid meet">

<g transform="translate(0.000000,1200.000000) scale(0.100000,-0.100000)"
fill="#000000" stroke="none">
<path d="M5365 11773 c-225 -5 -677 -46 -975 -88 -261 -37 -1448 -262 -1512
-287 -30 -11 -36 -30 -40 -123 l-3 -50 -761 -3 c-661 -2 -763 -4 -774 -17 -21
-25 -29 -564 -40 -2620 -6 -1067 -12 -1978 -15 -2025 -3 -47 -10 -578 -15
-1180 -6 -666 -14 -1115 -20 -1146 -7 -33 -9 -239 -7 -560 3 -472 5 -518 25
-627 12 -65 35 -151 50 -190 45 -111 45 -117 15 -209 -24 -71 -28 -99 -28
-193 1 -103 3 -116 39 -210 66 -171 142 -315 293 -551 45 -72 83 -135 83 -141
0 -5 -33 -39 -72 -74 -99 -87 -108 -97 -108 -113 0 -27 253 -177 443 -263 267
-120 552 -199 872 -242 194 -26 472 -44 605 -40 99 4 108 6 154 36 27 18 60
33 73 33 12 0 80 -24 150 -54 71 -29 149 -61 174 -70 25 -9 77 -41 115 -72
140 -112 260 -162 416 -173 l98 -7 72 -71 c86 -82 149 -111 267 -120 61 -4 93
-1 161 17 119 32 131 31 187 -22 27 -24 69 -54 94 -66 104 -50 247 -53 359 -8
35 14 72 26 82 26 10 0 45 -13 78 -30 74 -37 99 -37 178 0 35 17 70 30 78 30
8 0 42 -12 77 -26 55 -24 71 -26 162 -22 110 4 174 26 249 87 l39 31 137 -6
c188 -9 246 6 400 105 46 30 74 41 123 46 132 15 304 77 459 166 57 33 112 56
154 65 42 8 108 36 179 74 62 33 121 60 129 60 9 0 27 -18 41 -40 13 -21 33
-44 44 -50 44 -23 526 -3 711 30 223 40 445 109 710 221 185 77 604 292 608
310 1 9 -33 62 -78 119 -44 57 -80 109 -80 115 0 7 50 73 111 146 61 74 131
167 156 207 92 147 170 383 180 543 5 78 3 92 -20 143 -15 31 -43 77 -64 102
l-37 46 46 86 c25 48 51 110 57 137 14 66 38 285 51 470 35 509 35 519 35
4132 0 3564 0 3572 -20 3577 -11 3 -348 6 -750 6 -401 0 -735 4 -741 8 -7 4
-13 42 -16 84 -2 43 -8 82 -14 88 -16 16 -254 81 -509 140 -634 147 -1284 244
-1940 291 -140 9 -1103 18 -1380 12z m1260 -143 c647 -44 1254 -131 1885 -271
272 -60 525 -122 538 -132 9 -7 12 -100 12 -403 0 -222 -4 -395 -9 -398 -11
-7 -121 15 -505 104 -1031 238 -1618 310 -2515 310 -828 0 -1431 -58 -2461
-235 -415 -71 -562 -95 -585 -95 -14 0 -15 42 -13 375 2 244 7 378 14 385 12
12 830 187 1074 229 365 63 915 116 1450 141 226 10 910 4 1115 -10z m-3780
-590 l0 -35 -635 0 c-349 0 -640 -3 -646 -7 -8 -5 -13 -315 -17 -1060 -4 -579
-11 -1327 -16 -1663 -47 -2878 -45 -3651 8 -3915 37 -186 110 -359 201 -482
54 -72 175 -190 319 -312 224 -190 496 -338 836 -456 387 -133 764 -181 1550
-195 791 -15 1049 -41 1213 -124 61 -31 93 -54 212 -150 41 -34 82 -61 92 -61
9 0 61 39 115 86 114 100 178 135 306 169 197 52 380 67 1037 85 665 18 938
37 1240 86 577 92 993 286 1326 619 207 207 381 473 446 685 l23 75 2 3230 c2
2034 -1 3236 -7 3245 -8 13 -91 15 -630 18 l-620 3 0 54 0 55 684 0 684 0 6
-1402 c4 -772 6 -2271 4 -3333 l-3 -1930 -24 -85 c-28 -101 -110 -279 -176
-381 -357 -553 -1168 -957 -2115 -1055 -144 -15 -220 -16 -600 -8 -685 13
-875 5 -1125 -51 -212 -48 -292 -92 -457 -253 l-109 -106 -87 91 c-234 244
-543 322 -1332 338 -831 16 -1087 34 -1410 97 -532 103 -1007 349 -1376 713
-202 200 -322 406 -376 650 -18 79 -21 137 -25 495 -3 223 0 637 6 920 24
1143 32 1734 42 3245 6 869 13 1707 16 1863 l5 282 707 -2 706 -3 0 -35z m-11
-176 c3 -9 6 -128 6 -265 0 -137 1 -249 3 -249 2 0 26 6 53 14 48 14 170 39
349 70 50 9 176 32 280 51 105 19 249 44 320 55 72 11 146 23 165 26 19 4 49
8 65 10 17 3 59 9 95 14 764 110 1193 145 1790 145 452 0 656 -13 1215 -80
236 -28 629 -91 880 -140 39 -8 147 -28 240 -45 158 -30 341 -71 460 -104 60
-17 168 -41 250 -56 76 -15 145 -29 168 -36 16 -5 17 11 17 245 0 137 3 256 6
265 6 14 66 16 583 16 l578 0 6 -1412 c4 -776 7 -2131 7 -3010 l0 -1598 -247
0 c-583 -1 -1520 2 -1545 4 -16 1 -95 3 -176 4 l-148 2 -114 81 c-196 138
-181 132 -309 120 -120 -12 -142 -8 -196 37 -58 49 -176 191 -186 224 -6 18
-13 96 -16 173 -6 159 7 235 57 341 84 176 266 256 474 209 94 -20 146 -41
147 -58 0 -6 1 -118 3 -247 3 -218 4 -239 25 -287 13 -28 31 -59 41 -68 18
-16 18 -7 22 262 3 272 4 280 30 353 34 94 66 125 139 135 30 4 64 11 76 16
51 19 55 -13 62 -466 l6 -400 27 -57 c14 -31 36 -61 47 -67 12 -7 22 -10 22
-9 1 2 4 236 8 521 5 443 8 519 21 528 25 17 168 2 290 -30 165 -44 223 -40
283 17 64 61 112 182 147 372 24 129 46 185 112 281 92 134 106 255 50 406
-35 93 -39 132 -28 289 10 129 3 158 -56 251 -50 78 -74 153 -88 279 -15 140
-36 206 -80 257 -50 56 -66 91 -85 178 -9 41 -34 110 -55 155 -67 139 -173
228 -359 299 -110 42 -144 64 -177 116 -31 49 -52 57 -189 74 -60 8 -111 14
-112 14 0 1 -28 45 -61 99 -148 240 -184 268 -365 282 -209 17 -367 61 -433
122 -60 56 -132 84 -299 117 -182 37 -374 52 -510 40 -55 -5 -132 -12 -170
-15 -54 -5 -109 0 -230 21 -189 32 -293 30 -447 -9 -133 -34 -389 -141 -439
-184 -23 -19 -77 -86 -121 -149 -78 -110 -83 -115 -152 -147 -39 -18 -105 -61
-146 -96 -85 -72 -92 -75 -296 -141 -182 -60 -256 -101 -351 -197 -60 -59 -82
-91 -122 -175 -27 -56 -59 -142 -72 -191 -12 -49 -32 -102 -43 -119 -12 -17
-65 -66 -118 -110 -200 -162 -233 -256 -208 -585 11 -148 11 -184 -4 -310 -27
-220 -10 -268 144 -427 53 -55 102 -110 109 -123 7 -13 16 -61 21 -107 13
-121 56 -199 144 -260 40 -27 76 -40 171 -61 118 -26 164 -42 196 -70 14 -13
16 4 22 188 4 112 7 338 8 503 1 165 4 344 8 398 l6 99 70 -62 c170 -151 304
-236 442 -280 52 -17 116 -41 143 -55 57 -29 113 -91 128 -144 8 -26 12 -165
12 -445 l0 -406 64 0 c158 0 180 -44 191 -385 7 -231 15 -287 47 -355 20 -41
115 -146 124 -137 2 2 -5 62 -15 133 -37 244 -37 460 -1 595 13 47 27 52 106
38 74 -13 134 -48 164 -98 57 -95 164 -292 186 -343 59 -140 55 -281 -11 -414
-61 -124 -162 -211 -437 -378 -70 -43 -150 -98 -177 -122 -55 -49 -101 -131
-101 -179 0 -85 119 -224 227 -265 134 -51 267 -59 625 -38 114 6 211 9 215 5
11 -12 -86 -144 -141 -193 -158 -140 -384 -246 -581 -273 -44 -6 -83 -15 -88
-20 -5 -5 -11 -46 -14 -91 -4 -53 -12 -88 -22 -101 -26 -32 -120 -39 -351 -29
-113 5 -396 16 -630 25 -234 9 -435 18 -446 20 -22 5 -59 57 -70 99 -11 44
-59 75 -209 136 -180 74 -242 106 -317 165 -74 58 -116 111 -232 298 -119 191
-168 248 -256 292 -93 47 -101 72 -44 135 59 66 123 65 224 -3 25 -17 107 -93
183 -169 240 -242 404 -321 619 -298 225 23 344 118 364 291 8 67 -16 169 -51
214 -27 37 -135 96 -236 130 -39 14 -74 24 -77 23 -4 -1 -38 1 -77 5 -38 4
-486 9 -995 12 -509 2 -1045 8 -1193 11 l-268 7 6 196 c3 108 7 626 10 1151
12 2409 27 4676 31 4688 3 9 127 12 578 12 514 0 574 -2 580 -16z m4210 -1411
c48 -34 83 -91 92 -151 10 -66 -6 -68 -53 -7 -59 76 -88 89 -187 82 -45 -3
-123 -17 -174 -30 -51 -13 -95 -20 -98 -16 -5 8 103 92 151 116 98 52 201 54
269 6z m-950 -158 c30 -14 80 -53 119 -92 74 -75 167 -198 167 -220 0 -16 -2
-15 -168 105 -185 134 -263 143 -386 43 -22 -17 -41 -29 -43 -27 -7 7 32 88
61 126 68 89 152 111 250 65z m1738 -270 c23 -15 47 -46 65 -82 25 -51 28 -69
28 -153 0 -61 -5 -103 -13 -118 -8 -13 -15 -22 -18 -20 -2 3 -11 44 -19 92
-26 147 -70 213 -158 237 -23 6 -61 8 -84 5 -24 -3 -43 -2 -43 3 0 5 23 21 52
35 70 35 140 35 190 1z m-1035 -136 c52 -25 100 -81 114 -133 14 -52 4 -57
-31 -14 -45 54 -95 70 -238 76 -68 2 -120 8 -115 13 4 4 35 24 67 43 72 43
135 48 203 15z m726 -133 c46 -19 69 -59 75 -131 6 -75 -17 -161 -52 -194
l-24 -23 -4 97 c-3 93 -4 98 -34 124 -20 19 -51 32 -95 40 -35 7 -77 16 -94
20 l-30 7 41 27 c63 42 160 57 217 33z m984 -72 c42 -32 62 -65 72 -120 11
-56 0 -124 -27 -164 l-16 -25 -13 63 c-15 72 -45 122 -99 161 -48 35 -95 51
-147 51 -52 0 -39 15 35 42 68 24 157 20 195 -8z m-1269 -363 c21 -11 54 -37
74 -59 54 -60 89 -169 43 -137 -168 119 -238 139 -339 96 -25 -11 -62 -23 -83
-27 l-38 -7 26 34 c35 46 115 106 158 118 48 13 112 6 159 -18z m739 12 c78
-37 140 -179 131 -302 -3 -36 -12 -80 -21 -96 -17 -33 -16 -35 -42 60 -21 77
-64 194 -83 222 -20 32 -77 65 -136 78 l-51 12 40 21 c49 26 115 28 162 5z
m494 -117 c117 -27 195 -97 219 -197 13 -54 8 -138 -11 -186 -11 -27 -12 -26
-25 34 -30 139 -118 252 -250 319 -41 21 -74 39 -74 41 0 8 91 1 141 -11z
m-3662 -317 c7 -56 16 -111 20 -122 7 -20 10 -18 29 20 27 52 46 66 35 26 -16
-57 -6 -195 21 -287 15 -49 25 -91 22 -93 -2 -3 -33 30 -68 72 -58 71 -64 83
-74 149 -19 113 -22 336 -6 336 5 0 14 -45 21 -101z m4206 40 c79 -22 135
-106 135 -204 0 -51 -24 -144 -49 -193 l-19 -37 -12 30 c-8 20 -9 64 -5 136 6
87 5 111 -9 137 -25 48 -53 69 -120 92 -34 11 -70 27 -80 35 -18 14 -14 15 50
15 38 0 87 -5 109 -11z m-1266 -190 c101 -51 149 -138 138 -253 -6 -56 -35
-162 -43 -154 -1 2 -9 47 -17 99 -17 112 -36 157 -85 200 -45 40 -84 56 -189
79 -47 10 -87 21 -90 24 -11 11 95 35 158 35 54 1 77 -4 128 -30z m519 -90
c86 -42 132 -145 112 -249 -12 -62 -73 -200 -89 -200 -7 0 -8 42 -4 125 5 104
3 131 -11 169 -20 52 -65 95 -139 132 -45 23 -49 28 -32 35 40 15 118 9 163
-12z m457 -76 c99 -50 144 -149 124 -274 -5 -35 -21 -86 -34 -114 -26 -55
-109 -154 -119 -144 -4 4 6 51 22 105 58 196 52 252 -37 372 -28 38 -51 73
-51 77 0 9 59 -4 95 -22z m-730 -506 c51 -25 73 -44 93 -82 39 -76 33 -163
-19 -272 -35 -73 -51 -82 -37 -20 27 118 -10 262 -91 350 -23 24 -41 47 -41
51 0 10 50 -4 95 -27z m-1809 -1092 c27 -8 75 -15 106 -15 l56 0 17 -49 c30
-93 16 -246 -23 -239 -26 5 -111 118 -130 172 -9 27 -34 68 -54 91 -54 62 -52
64 28 40z m1243 -21 c2 -2 -19 -28 -46 -59 -27 -30 -71 -94 -98 -142 -48 -85
-49 -86 -57 -57 -8 26 -1 250 8 265 4 6 185 0 193 -7z m-6036 -2188 c53 -102
112 -182 206 -280 170 -176 413 -351 680 -491 323 -169 486 -306 573 -481 40
-81 43 -93 46 -185 5 -118 -18 -207 -73 -281 -37 -51 -112 -111 -157 -127 -26
-9 -27 -9 -17 16 5 14 19 38 30 54 87 123 81 271 -17 440 -71 121 -196 204
-504 334 -188 80 -319 146 -408 207 -272 188 -415 462 -466 893 l-6 49 36 -34
c19 -19 54 -71 77 -114z m9228 14 c-51 -347 -191 -605 -421 -779 -104 -78
-190 -124 -411 -219 -235 -102 -318 -143 -397 -199 -111 -79 -191 -205 -213
-339 -15 -92 -3 -148 52 -243 23 -40 39 -74 36 -77 -12 -12 -85 33 -132 81
-102 104 -146 256 -114 395 20 91 85 204 164 288 103 110 218 186 530 353 358
190 683 482 802 717 21 40 53 92 73 115 l35 41 3 -29 c2 -16 -1 -63 -7 -105z
m-9282 -570 c48 -71 169 -183 267 -247 86 -56 349 -187 569 -283 365 -160 451
-235 462 -409 l4 -66 -37 68 c-68 124 -185 206 -374 260 -228 66 -511 58 -677
-18 -61 -28 -155 -112 -173 -155 -7 -17 -16 -30 -20 -30 -17 0 -35 69 -35 135
0 91 32 150 111 202 30 20 54 38 54 41 0 2 -29 43 -64 91 -75 100 -100 157
-115 261 -14 101 -21 200 -13 200 4 0 22 -23 41 -50z m9248 -110 c-18 -141
-39 -192 -120 -300 -32 -41 -57 -78 -57 -82 0 -4 19 -20 43 -36 56 -39 83 -70
102 -114 20 -49 19 -137 -2 -189 l-16 -42 -19 37 c-44 86 -154 161 -280 191
-100 25 -307 30 -413 12 -174 -31 -349 -104 -418 -175 -20 -20 -52 -64 -71
-96 l-36 -60 0 55 c0 110 76 208 217 282 37 19 156 74 263 122 467 209 645
322 766 487 52 71 59 54 41 -92z m-7568 -274 c135 -70 221 -377 166 -591 -34
-133 -124 -263 -225 -327 -40 -25 -183 -78 -212 -78 -6 0 5 17 24 38 86 96
165 246 199 381 18 71 21 105 17 210 -4 107 -9 140 -36 220 -33 96 -34 133 -3
151 22 13 38 12 70 -4z m5955 -2 c22 -22 20 -59 -8 -140 -71 -211 -56 -405 50
-619 24 -49 69 -121 100 -159 l56 -69 -43 7 c-131 21 -293 147 -357 278 -82
167 -78 397 10 573 58 116 146 175 192 129z m-1386 -109 c327 -63 578 -243
743 -531 87 -153 268 -283 504 -362 168 -56 373 -77 497 -51 157 33 278 145
303 282 l7 37 -31 -11 c-94 -33 -183 56 -160 159 19 89 139 143 248 112 105
-30 169 -129 178 -273 14 -220 -97 -385 -330 -492 -96 -44 -176 -62 -329 -77
-302 -28 -595 41 -865 204 -134 80 -216 156 -302 277 -83 116 -153 184 -227
218 -98 45 -138 23 -198 -110 -34 -73 -37 -77 -68 -77 -75 0 -170 77 -204 167
-22 56 -44 56 -127 3 -111 -73 -208 -86 -283 -39 -18 11 -56 47 -84 79 -62 72
-66 72 -217 30 -206 -58 -296 -50 -414 36 l-63 47 25 13 c14 7 54 19 90 28 83
19 136 42 261 114 249 143 404 201 628 232 91 12 319 4 418 -15z m-2682 -18
c156 -40 310 -106 459 -197 109 -67 165 -91 263 -116 118 -29 127 -37 84 -74
-110 -92 -224 -111 -392 -65 -52 14 -119 31 -148 38 l-53 11 -62 -66 c-114
-123 -230 -142 -340 -56 -38 30 -96 58 -120 58 -7 0 -27 -28 -43 -61 -16 -35
-46 -76 -68 -95 -35 -30 -111 -64 -143 -64 -8 0 -31 37 -52 83 -60 128 -95
150 -185 116 -72 -26 -161 -108 -229 -209 -121 -179 -275 -298 -505 -390 -456
-183 -950 -141 -1195 101 -117 117 -164 256 -134 402 19 94 38 135 84 180 86
86 215 87 300 2 38 -37 43 -48 43 -86 0 -50 -26 -99 -65 -125 -18 -12 -39 -15
-76 -12 l-51 5 5 -34 c14 -83 83 -176 169 -226 65 -39 149 -57 263 -57 236 0
463 70 666 206 95 64 151 122 203 213 128 222 311 383 541 474 77 30 128 43
275 71 14 2 111 3 215 1 164 -2 204 -6 291 -28z m-1349 -73 c56 -36 72 -140
38 -244 -36 -113 -85 -191 -176 -282 -77 -77 -99 -93 -200 -141 -169 -81 -171
-81 -110 -6 95 118 160 271 201 474 30 146 61 200 125 218 30 8 97 -2 122 -19z
m4948 12 c46 -20 70 -71 105 -225 49 -213 97 -324 195 -450 65 -83 65 -83 -72
-20 -172 80 -287 183 -361 326 -68 132 -86 227 -56 302 29 72 109 100 189 67z
m-6768 -149 c-34 -88 -57 -188 -57 -243 0 -79 16 -120 63 -161 36 -32 51 -36
156 -48 30 -3 67 -13 83 -21 32 -17 32 -18 -31 -113 l-35 -53 -87 4 c-200 9
-319 130 -319 324 0 120 62 233 160 292 59 35 75 39 67 19z m368 -2 c33 -9 87
-28 120 -44 l60 -27 -76 -13 c-124 -20 -169 -53 -249 -183 -36 -58 -72 -117
-81 -130 l-17 -23 -36 40 c-46 52 -60 101 -45 158 30 113 92 196 165 222 51
18 87 18 159 0z m7895 -7 c56 -29 102 -88 129 -169 34 -102 26 -150 -39 -217
-21 -23 -23 -23 -42 -5 -11 10 -47 64 -80 121 -85 145 -137 182 -282 198 l-59
7 29 15 c16 9 65 28 109 44 101 35 173 37 235 6z m248 3 c181 -92 241 -371
117 -534 -60 -78 -169 -126 -288 -127 -65 0 -77 8 -127 85 -59 91 -59 91 156
121 47 7 96 44 124 94 40 74 28 198 -37 367 -7 18 11 16 55 -6z m-3646 -415
c474 -46 892 -130 1217 -246 181 -64 422 -163 476 -195 42 -24 44 -26 49 -87
3 -35 8 -143 11 -240 4 -144 3 -178 -8 -178 -23 0 -145 45 -387 142 -647 261
-900 325 -1485 374 -292 25 -836 29 -1120 10 -602 -41 -796 -89 -1492 -367
-205 -82 -375 -149 -378 -149 -4 0 -5 108 -3 240 2 198 6 242 18 255 25 24
230 111 403 170 411 139 876 228 1437 275 281 23 1003 21 1262 -4z m3518 -373
c-47 -142 -42 -169 54 -263 31 -30 56 -59 56 -65 0 -20 -288 -170 -507 -264
-435 -186 -912 -285 -1221 -254 -56 5 -104 12 -106 14 -1 2 0 90 3 196 5 161
9 195 23 209 12 12 60 21 190 35 310 34 556 86 843 179 236 77 494 192 636
283 30 19 55 32 57 27 1 -4 -11 -48 -28 -97z m-8348 62 c118 -64 569 -222 813
-284 256 -65 365 -84 595 -106 171 -16 204 -26 219 -68 4 -12 7 -103 7 -202
l-1 -179 -35 -8 c-19 -5 -75 -6 -125 -3 -513 33 -1174 199 -1482 371 -70 39
-133 90 -133 107 0 6 34 43 76 82 l77 70 -42 118 c-40 116 -46 137 -36 137 2
0 33 -16 67 -35z m3713 -259 c152 -34 280 -125 359 -254 105 -173 145 -417 96
-592 -29 -102 -63 -160 -131 -225 -74 -70 -150 -106 -240 -113 -59 -4 -76 -1
-121 21 -199 98 -235 355 -66 477 76 56 185 35 221 -43 31 -64 19 -122 -43
-212 -26 -38 -28 -45 -13 -45 35 0 119 48 155 88 70 77 89 162 64 280 -48 230
-209 377 -450 413 -127 19 -289 -18 -457 -105 -46 -23 -176 -90 -289 -148
-120 -61 -247 -119 -305 -138 -183 -58 -348 -50 -435 24 l-29 24 47 20 c26 11
65 25 87 32 97 31 180 83 311 196 255 218 363 272 622 309 131 19 518 13 617
-9z m1540 -11 c119 -18 267 -57 339 -89 75 -35 121 -69 254 -192 152 -140 206
-176 366 -241 71 -29 131 -55 134 -57 9 -9 -20 -37 -62 -59 -36 -19 -57 -22
-161 -22 -98 0 -134 4 -195 23 -96 30 -279 118 -485 232 -279 155 -359 183
-515 184 -195 0 -377 -87 -468 -223 -110 -165 -109 -336 4 -461 33 -36 132
-96 142 -85 3 2 -5 27 -17 54 -38 89 -25 208 29 256 28 25 120 26 167 2 66
-35 103 -120 103 -236 -1 -110 -51 -186 -155 -233 -67 -30 -185 -29 -265 1
-118 45 -187 120 -232 250 -31 90 -31 277 1 395 60 227 215 420 377 471 142
45 446 59 639 30z m-1637 -373 c89 -34 153 -96 176 -170 7 -21 4 -20 -45 10
-49 31 -58 33 -138 32 -148 -1 -253 -45 -417 -175 -99 -79 -232 -158 -303
-180 -90 -28 -197 -28 -278 0 -64 22 -173 85 -173 100 0 4 42 25 93 46 50 20
193 90 317 153 323 167 332 171 412 192 99 27 278 23 356 -8z m1454 -6 c99
-25 149 -48 368 -168 74 -41 206 -105 293 -143 87 -37 160 -72 163 -76 7 -12
-90 -72 -161 -99 -46 -18 -80 -23 -150 -23 -141 -1 -221 37 -465 219 -69 51
-146 102 -171 112 -64 28 -152 45 -234 45 -74 1 -101 -9 -149 -52 l-29 -26 7
30 c11 44 54 103 101 135 107 73 256 89 427 46z m-1437 -205 c17 -7 12 -12
-33 -31 -111 -48 -180 -160 -198 -322 -4 -34 -10 -70 -15 -79 -10 -20 -114
-39 -210 -39 -82 0 -144 22 -191 67 -37 35 -35 46 10 62 57 21 125 68 261 180
121 100 195 147 256 162 40 9 95 9 120 0z m1265 -78 c25 -14 95 -63 155 -108
128 -96 222 -158 276 -182 22 -9 39 -20 39 -24 0 -14 -66 -58 -109 -74 -44
-15 -205 -19 -266 -6 l-30 6 -7 94 c-11 139 -40 214 -112 290 -36 38 -38 42
-16 36 14 -4 45 -18 70 -32z"/>
<path d="M6115 11278 c-32 -101 -71 -207 -85 -235 l-27 -53 27 0 c25 0 29 6
44 60 l17 60 73 0 73 0 17 -60 c17 -59 18 -60 52 -60 33 0 34 1 20 23 -8 12
-42 110 -76 217 -34 107 -64 203 -68 213 -5 12 -27 -42 -67 -165z m85 -40 l28
-93 -34 -3 c-19 -2 -47 -2 -63 0 l-29 3 31 97 c17 54 32 96 34 94 3 -2 17 -46
33 -98z"/>
<path d="M5568 11431 c-21 -5 -25 -9 -18 -21 16 -25 12 -360 -4 -392 l-15 -28
50 0 c50 0 50 0 35 22 -13 18 -16 56 -16 203 0 147 3 185 16 203 14 20 14 22
-3 21 -10 -1 -30 -4 -45 -8z"/>
<path d="M5277 11410 c-14 -11 -31 -36 -37 -55 -19 -59 -5 -91 76 -167 42 -41
75 -82 79 -98 20 -92 -84 -124 -140 -43 l-25 38 0 -41 c0 -50 15 -65 73 -71
56 -7 99 15 121 61 33 70 14 119 -76 198 -69 61 -84 90 -68 132 19 50 85 46
119 -7 l21 -32 0 42 c0 37 -3 42 -31 52 -47 16 -83 13 -112 -9z"/>
<path d="M5690 11379 l0 -50 34 35 c28 30 40 36 74 36 l41 0 -6 -187 c-4 -148
-9 -192 -21 -205 -14 -17 -11 -18 43 -18 56 0 57 1 42 18 -15 16 -17 46 -17
205 l0 187 36 0 c45 0 70 -13 88 -48 15 -27 15 -27 16 26 l0 52 -165 0 -165 0
0 -51z"/>
<path d="M6386 11409 c-14 -11 -30 -35 -34 -52 -15 -58 2 -95 77 -171 79 -79
95 -118 67 -161 -26 -40 -70 -34 -118 15 l-38 41 0 -34 c0 -43 23 -64 78 -73
55 -9 96 9 116 51 34 71 18 116 -74 205 -65 61 -70 70 -70 108 0 31 5 44 19
52 33 17 52 11 87 -26 l34 -35 0 36 c0 32 -4 38 -35 51 -47 19 -78 18 -109 -7z"/>
<path d="M6827 11242 c-32 -97 -69 -198 -82 -224 l-24 -48 28 0 c25 0 29 5 41
55 l13 55 51 -1 c90 -2 99 -8 116 -72 13 -55 15 -57 46 -57 32 0 32 1 20 25
-7 13 -42 119 -77 234 -35 116 -66 211 -69 211 -3 0 -31 -80 -63 -178z m109
-116 l6 -29 -57 6 c-31 3 -59 8 -62 11 -5 4 43 159 55 181 5 8 43 -101 58
-169z"/>
<path d="M4872 11393 c-6 -2 -9 -9 -6 -15 8 -13 5 -383 -3 -403 -4 -11 3 -15
28 -15 l34 0 -3 100 c-4 92 -2 100 15 100 12 0 34 -26 66 -80 51 -84 83 -110
137 -110 33 0 41 15 11 25 -27 8 -105 95 -131 145 -21 42 -21 42 -2 56 53 37
68 139 27 179 -21 22 -33 25 -92 24 -37 0 -74 -3 -81 -6z m129 -34 c31 -31 22
-113 -15 -146 -15 -13 -36 -23 -47 -23 -17 0 -19 8 -19 89 0 62 4 91 13 94 26
11 48 6 68 -14z"/>
<path d="M4715 11385 c-5 -2 -45 -6 -87 -10 -72 -6 -77 -8 -68 -25 14 -26 13
-366 -1 -392 -6 -11 -9 -21 -7 -23 4 -3 211 15 216 19 1 2 5 21 8 42 4 33 3
36 -6 21 -25 -40 -125 -62 -149 -33 -8 9 -11 43 -9 93 l3 78 64 3 c45 2 67 -1
72 -10 6 -8 9 4 9 31 0 42 -1 43 -18 28 -13 -12 -37 -17 -76 -17 l-57 0 3 78
3 77 63 3 c38 2 69 -2 78 -9 12 -9 14 -6 14 20 0 26 -4 31 -22 30 -13 0 -27
-2 -33 -4z"/>
<path d="M7090 11174 c0 -115 -4 -203 -10 -215 -10 -17 -7 -19 27 -19 29 0 34
3 25 12 -13 13 -18 298 -4 298 7 -1 234 -311 240 -330 2 -5 8 -10 13 -10 5 0
9 86 9 201 0 119 4 208 10 220 9 17 7 19 -17 19 l-28 0 3 -117 c2 -65 2 -136
0 -158 l-3 -39 -125 167 c-68 92 -128 167 -132 167 -5 0 -8 -88 -8 -196z"/>
<path d="M4407 11353 c-3 -5 -26 -84 -52 -176 -27 -92 -51 -164 -56 -160 -4 4
-28 76 -54 158 -26 83 -49 153 -51 156 -2 3 -17 4 -33 1 -30 -4 -30 -5 -16
-31 7 -15 41 -111 75 -212 33 -101 63 -191 66 -199 3 -8 28 57 54 145 52 172
95 292 112 313 8 9 4 12 -15 12 -14 0 -28 -3 -30 -7z"/>
<path d="M7506 11318 c11 -31 5 -390 -7 -404 -12 -14 157 -38 198 -28 81 20
122 88 123 203 0 160 -69 225 -263 246 -58 7 -59 6 -51 -17z m192 -45 c46 -34
65 -79 70 -162 7 -135 -33 -197 -128 -195 -80 1 -80 2 -80 199 0 94 3 175 8
179 13 14 103 -1 130 -21z"/>
<path d="M3992 11313 c-17 -3 -22 -9 -17 -21 4 -9 6 -100 5 -202 -1 -135 -5
-190 -14 -205 -13 -20 -12 -21 23 -17 55 5 66 11 53 24 -15 15 -17 381 -2 409
11 20 5 22 -48 12z"/>
<path d="M7931 11135 c-30 -90 -66 -189 -82 -220 l-28 -55 29 0 c25 0 29 5 40
50 7 28 15 52 19 54 3 2 37 -1 75 -7 l70 -12 14 -55 c16 -65 17 -66 62 -75 34
-7 34 -7 18 11 -14 16 -103 286 -140 427 -7 26 -15 47 -18 47 -3 0 -29 -74
-59 -165z m83 -54 c15 -51 25 -96 22 -98 -9 -10 -116 8 -116 19 0 6 11 43 25
82 14 39 28 77 31 85 7 20 9 15 38 -88z"/>
<path d="M3830 11284 c-13 -4 -15 -29 -12 -162 l3 -157 -43 45 c-24 25 -82 87
-129 138 l-86 93 -5 -205 c-4 -156 -8 -209 -19 -222 -13 -16 -12 -17 11 -11
14 4 30 7 36 7 8 0 8 11 1 38 -6 24 -7 80 -1 157 l9 119 125 -142 125 -142 5
212 c3 117 9 219 13 226 8 12 -2 14 -33 6z"/>
<path d="M8188 11046 c2 -125 -1 -202 -8 -215 -9 -18 -6 -21 27 -27 21 -3 70
-12 108 -19 39 -8 85 -15 104 -17 32 -3 34 -1 48 47 8 28 16 52 18 54 2 1 35
-3 74 -9 l70 -13 17 -63 c16 -62 28 -73 73 -74 11 0 11 3 1 15 -7 8 -43 119
-81 247 -38 127 -70 233 -72 235 -2 1 -19 -45 -37 -105 -53 -169 -114 -322
-129 -322 -4 0 -6 13 -3 30 l4 30 -36 -15 c-40 -17 -111 -7 -128 17 -8 11 -4
293 5 373 2 16 -5 21 -28 23 l-30 3 3 -195z m401 -53 c13 -49 26 -94 28 -102
5 -11 -4 -12 -43 -7 -90 13 -86 6 -52 106 16 50 33 90 37 90 3 0 17 -39 30
-87z"/>
<path d="M3395 11047 c0 -191 -8 -223 -65 -252 -59 -30 -109 -14 -131 42 -12
33 -11 285 1 319 10 26 10 26 -21 20 -17 -3 -35 -6 -40 -6 -5 0 -4 -12 1 -26
6 -14 10 -90 9 -168 -1 -193 18 -230 118 -228 99 2 154 74 160 207 11 275 11
265 -11 265 -20 0 -21 -5 -21 -173z"/>
<path d="M8782 11129 c-13 -5 -30 -25 -38 -44 -22 -55 -5 -100 75 -195 76 -90
88 -118 68 -158 -10 -22 -19 -27 -47 -25 -34 1 -64 26 -97 79 -10 17 -12 15
-12 -18 -1 -46 23 -71 84 -88 54 -15 81 -7 106 33 36 61 21 109 -69 213 -70
81 -86 113 -72 148 18 49 77 35 115 -27 l25 -42 0 42 c0 36 -4 44 -32 61 -43
25 -78 32 -106 21z"/>
<path d="M6010 2028 c0 -7 -26 -66 -58 -130 -47 -97 -54 -118 -40 -118 11 0
24 14 32 35 16 37 23 39 89 29 31 -6 40 -13 52 -40 10 -24 21 -34 35 -34 12 0
20 3 18 8 -1 4 -27 65 -57 135 -49 115 -71 150 -71 115z m44 -146 c7 -21 5
-22 -43 -22 l-50 0 27 61 26 61 17 -38 c9 -22 19 -49 23 -62z"/>
<path d="M5725 1883 l0 -148 -25 1 c-14 1 -33 4 -42 9 -19 8 -23 -2 -9 -24 13
-21 71 -16 95 9 19 19 21 32 21 148 0 70 4 133 8 140 6 8 0 12 -20 12 l-28 0
0 -147z"/>
<path d="M6275 2010 c11 -18 -7 -259 -21 -278 -12 -16 -15 -16 -44 0 -31 18
-31 18 -28 -5 2 -16 11 -23 34 -25 65 -6 92 49 93 193 1 33 5 75 10 93 9 31 9
32 -20 32 -17 0 -28 -4 -24 -10z"/>
<path d="M5308 2005 c-3 -3 -2 -25 3 -49 4 -24 9 -80 11 -124 l3 -80 55 5
c132 12 180 47 180 132 0 87 -46 121 -168 121 -43 0 -81 -2 -84 -5z m157 -20
c63 -26 77 -125 25 -176 -26 -26 -36 -30 -77 -27 l-48 3 -9 98 c-8 81 -7 100
5 108 21 13 65 11 104 -6z"/>
<path d="M6539 1948 c-18 -35 -49 -91 -69 -125 -30 -48 -35 -63 -24 -67 10 -4
20 7 32 30 l17 36 55 -7 c56 -7 70 -16 70 -47 0 -17 28 -38 51 -38 8 0 8 4 2
13 -6 6 -29 69 -52 140 -24 70 -44 127 -47 127 -2 0 -18 -28 -35 -62z m41 -49
c6 -22 14 -47 17 -55 4 -11 -5 -14 -41 -14 -28 0 -46 4 -46 12 0 12 48 98 55
98 2 0 9 -18 15 -41z"/>
<path d="M5033 1976 c-60 -9 -70 -13 -63 -26 5 -9 14 -64 21 -123 l13 -107 70
6 c73 7 96 16 96 40 0 12 -3 12 -22 0 -13 -7 -40 -17 -60 -20 -43 -8 -58 10
-58 67 0 33 1 34 46 41 25 3 50 3 55 0 5 -3 9 4 9 16 0 17 -3 19 -19 10 -30
-15 -101 -13 -101 4 0 7 -3 28 -6 45 l-6 31 61 0 c48 0 61 3 61 15 0 17 3 17
-97 1z"/>
<path d="M6850 1913 c-18 -32 -52 -86 -75 -120 -24 -34 -41 -64 -37 -67 13
-14 29 -4 44 28 16 33 16 33 67 25 62 -9 71 -15 71 -39 0 -21 25 -50 44 -50 9
0 7 18 -9 68 -12 37 -31 100 -41 140 -10 39 -22 72 -25 72 -4 0 -22 -26 -39
-57z m43 -65 l15 -58 -26 1 c-15 1 -37 4 -49 7 l-22 7 31 53 c16 29 32 52 33
50 2 -2 10 -29 18 -60z"/>
<path d="M4750 1923 c-1 -22 -87 -120 -96 -110 -4 4 -7 28 -8 55 -1 46 -2 48
-29 44 -21 -3 -27 -8 -22 -21 13 -34 45 -206 41 -218 -6 -14 7 -16 42 -7 19 5
20 8 8 18 -8 6 -17 31 -21 55 -8 50 -10 50 71 -11 32 -24 61 -38 80 -38 25 1
27 2 11 11 -10 6 -47 32 -82 59 l-64 48 60 66 c57 62 59 66 35 66 -18 0 -26
-5 -26 -17z"/>
<path d="M7140 1907 c0 -24 -42 -213 -50 -222 -8 -9 -5 -14 13 -17 20 -4 23 0
24 27 1 18 6 58 13 89 14 69 14 69 105 -59 37 -52 70 -95 74 -95 4 0 15 44 25
98 10 53 25 107 32 120 8 12 10 22 5 22 -5 0 -17 3 -27 7 -13 5 -16 3 -12 -8
3 -8 -2 -50 -11 -93 l-17 -79 -82 106 c-72 93 -92 116 -92 104z"/>
<path d="M9794 1494 c4 -27 10 -86 13 -131 5 -63 9 -80 20 -76 9 3 13 18 11
39 -3 31 1 37 35 56 31 18 41 20 55 10 29 -21 41 -24 59 -18 13 5 9 12 -23 33
-21 15 -70 51 -108 82 l-69 54 7 -49z m74 -96 c-37 -23 -44 -17 -52 45 l-6 48
45 -37 44 -38 -31 -18z"/>
<path d="M9612 1444 c-24 -17 -30 -65 -9 -82 6 -6 39 -17 72 -26 61 -16 88
-37 78 -62 -7 -18 -46 -28 -78 -20 -19 5 -23 3 -19 -9 13 -33 106 -5 119 35 9
29 -19 68 -53 76 -87 19 -107 29 -107 54 0 23 4 25 41 25 29 0 40 4 37 13 -7
17 -54 15 -81 -4z"/>
<path d="M9425 1376 c-94 -41 -84 -188 15 -217 46 -14 102 -2 141 29 21 18 21
21 9 64 -11 36 -17 44 -32 40 -22 -5 -22 -3 -1 -47 15 -32 15 -37 1 -51 -8 -9
-33 -18 -55 -21 -34 -4 -45 -1 -73 24 -26 24 -33 39 -37 79 -5 46 -3 53 22 72
31 24 65 28 97 11 18 -10 20 -9 15 6 -4 9 -7 19 -7 21 0 9 -67 2 -95 -10z"/>
<path d="M9254 1298 c16 -27 50 -128 44 -133 -2 -3 -51 22 -109 54 -57 32
-105 57 -106 56 -2 -1 8 -42 22 -91 14 -49 25 -99 25 -111 0 -16 5 -20 19 -16
18 5 18 6 1 51 -10 26 -21 62 -25 79 l-7 33 115 -60 115 -61 -36 110 c-28 84
-41 110 -55 111 -16 0 -16 -2 -3 -22z"/>
<path d="M8940 1269 c-1 -16 -48 -228 -54 -241 -6 -13 -3 -15 13 -11 15 4 21
13 21 34 0 30 1 30 75 43 24 4 35 -1 55 -25 18 -22 31 -28 43 -23 17 6 15 10
-11 38 -17 17 -55 66 -86 110 -31 43 -56 77 -56 75z m47 -113 l32 -44 -40 -7
c-22 -4 -42 -5 -45 -3 -6 7 8 98 15 98 4 0 21 -20 38 -44z"/>
<path d="M8674 1215 c11 -31 37 -196 31 -205 -9 -14 72 -12 115 3 32 11 35 15
35 52 0 35 -4 42 -33 56 -24 12 -28 18 -17 23 22 8 19 63 -4 76 -11 5 -45 10
-76 10 -47 0 -56 -3 -51 -15z m101 -11 c23 -24 15 -56 -18 -67 -16 -5 -30 -7
-31 -6 -2 2 -7 23 -11 47 -6 40 -6 42 18 42 14 0 33 -7 42 -16z m35 -104 c38
-38 20 -80 -36 -80 -29 0 -32 3 -38 38 -3 20 -6 43 -6 50 0 20 58 14 80 -8z"/>
<path d="M1957 1482 c-21 -42 -38 -87 -37 -99 0 -33 55 -73 99 -73 46 0 70 23
105 103 29 67 30 71 19 74 -4 2 -19 -24 -33 -58 -29 -70 -61 -109 -88 -109
-31 0 -72 38 -72 67 0 25 54 131 74 146 7 5 6 10 -4 17 -8 5 -17 9 -20 9 -3 0
-22 -35 -43 -77z"/>
<path d="M2180 1345 c-40 -83 -43 -95 -27 -99 11 -2 17 2 17 11 0 9 12 42 26
74 l27 59 52 -107 52 -108 23 70 c12 39 31 87 40 107 15 32 16 38 3 42 -21 8
-25 7 -18 -3 5 -9 -31 -119 -45 -134 -4 -4 -26 35 -50 88 -24 52 -46 95 -49
95 -3 0 -26 -43 -51 -95z"/>
<path d="M2445 1371 c-3 -2 -5 -13 -5 -25 0 -15 3 -17 12 -8 14 14 47 16 66 4
10 -7 7 -26 -14 -93 -14 -46 -31 -87 -37 -91 -14 -9 -9 -14 25 -22 21 -5 25
-3 22 12 -3 9 6 53 19 97 27 89 42 101 81 62 24 -24 25 -25 32 -5 3 11 4 21 2
23 -8 7 -199 51 -203 46z"/>
<path d="M2676 1234 c-19 -84 -19 -85 1 -112 34 -46 121 -53 157 -13 9 10 22
50 30 88 7 39 16 75 20 81 3 5 -1 13 -10 16 -21 8 -26 8 -20 -3 10 -16 -21
-151 -39 -171 -24 -26 -79 -26 -105 0 -11 11 -20 26 -20 33 0 15 26 126 35
150 5 12 2 17 -12 17 -15 0 -22 -15 -37 -86z"/>
<path d="M2951 1188 c-7 -51 -18 -99 -23 -105 -8 -9 -6 -13 5 -13 8 0 22 -3
31 -6 12 -5 14 1 9 29 -3 19 -1 42 4 52 9 15 15 10 49 -34 27 -34 46 -50 62
-51 21 0 22 2 8 15 -45 45 -88 107 -80 114 5 5 36 27 68 50 51 35 56 41 34 41
-14 0 -28 -6 -31 -14 -6 -15 -96 -81 -102 -74 -2 1 0 22 5 46 6 36 5 42 -9 42
-14 0 -20 -18 -30 -92z"/>
</g>
</svg>
